<mxfile host="app.diagrams.net" modified="2024-05-14T19:07:13.186Z" agent="Mozilla/5.0 (Windows NT 10.0; Win64; x64) AppleWebKit/537.36 (KHTML, like Gecko) Chrome/123.0.0.0 Safari/537.36 OPR/109.0.0.0" etag="A9oeJ4cVZuBdbYv2fI9F" version="24.4.0" type="device" pages="4">
  <diagram id="R2lEEEUBdFMjLlhIrx00" name="Meet">
    <mxGraphModel dx="1009" dy="573" grid="1" gridSize="10" guides="1" tooltips="1" connect="1" arrows="1" fold="1" page="1" pageScale="1" pageWidth="850" pageHeight="1100" math="0" shadow="0" extFonts="Permanent Marker^https://fonts.googleapis.com/css?family=Permanent+Marker">
      <root>
        <mxCell id="0" />
        <mxCell id="1" parent="0" />
        <mxCell id="LWIg9Wg_jVXJ1rkE-vnx-6" value="&lt;font style=&quot;font-size: 22px;&quot;&gt;John&lt;/font&gt;" style="rounded=1;whiteSpace=wrap;html=1;" vertex="1" parent="1">
          <mxGeometry x="100" y="50" width="120" height="60" as="geometry" />
        </mxCell>
        <mxCell id="LWIg9Wg_jVXJ1rkE-vnx-7" value="&lt;font color=&quot;#000000&quot; style=&quot;font-size: 22px;&quot;&gt;Emily&lt;/font&gt;" style="rounded=1;whiteSpace=wrap;html=1;labelBackgroundColor=none;fontColor=#000033;labelBorderColor=none;" vertex="1" parent="1">
          <mxGeometry x="620" y="50" width="120" height="60" as="geometry" />
        </mxCell>
        <mxCell id="LWIg9Wg_jVXJ1rkE-vnx-8" value="&lt;font style=&quot;font-size: 22px;&quot;&gt;Michael&lt;/font&gt;" style="rounded=1;whiteSpace=wrap;html=1;" vertex="1" parent="1">
          <mxGeometry x="230" y="360" width="120" height="60" as="geometry" />
        </mxCell>
        <mxCell id="LWIg9Wg_jVXJ1rkE-vnx-9" value="&lt;font style=&quot;font-size: 22px;&quot;&gt;David&lt;/font&gt;" style="rounded=1;whiteSpace=wrap;html=1;" vertex="1" parent="1">
          <mxGeometry x="410" y="450" width="120" height="60" as="geometry" />
        </mxCell>
        <mxCell id="LWIg9Wg_jVXJ1rkE-vnx-10" value="&lt;font style=&quot;font-size: 22px;&quot;&gt;Jane&lt;/font&gt;" style="rounded=1;whiteSpace=wrap;html=1;" vertex="1" parent="1">
          <mxGeometry x="70" y="210" width="120" height="60" as="geometry" />
        </mxCell>
        <mxCell id="LWIg9Wg_jVXJ1rkE-vnx-11" value="&lt;font style=&quot;font-size: 22px;&quot;&gt;Sarah&lt;/font&gt;" style="rounded=1;whiteSpace=wrap;html=1;" vertex="1" parent="1">
          <mxGeometry x="620" y="360" width="120" height="60" as="geometry" />
        </mxCell>
        <mxCell id="LWIg9Wg_jVXJ1rkE-vnx-12" value="" style="endArrow=classic;html=1;rounded=0;exitX=0.583;exitY=1.053;exitDx=0;exitDy=0;exitPerimeter=0;entryX=0.5;entryY=0;entryDx=0;entryDy=0;" edge="1" parent="1" source="LWIg9Wg_jVXJ1rkE-vnx-6" target="LWIg9Wg_jVXJ1rkE-vnx-10">
          <mxGeometry width="50" height="50" relative="1" as="geometry">
            <mxPoint x="400" y="220" as="sourcePoint" />
            <mxPoint x="450" y="170" as="targetPoint" />
            <Array as="points" />
          </mxGeometry>
        </mxCell>
        <mxCell id="LWIg9Wg_jVXJ1rkE-vnx-14" value="" style="endArrow=classic;html=1;rounded=0;entryX=0.25;entryY=1;entryDx=0;entryDy=0;exitX=0.15;exitY=0.02;exitDx=0;exitDy=0;exitPerimeter=0;" edge="1" parent="1" source="LWIg9Wg_jVXJ1rkE-vnx-11" target="LWIg9Wg_jVXJ1rkE-vnx-7">
          <mxGeometry width="50" height="50" relative="1" as="geometry">
            <mxPoint x="640" y="350" as="sourcePoint" />
            <mxPoint x="450" y="170" as="targetPoint" />
            <Array as="points" />
          </mxGeometry>
        </mxCell>
        <mxCell id="LWIg9Wg_jVXJ1rkE-vnx-15" value="" style="endArrow=classic;html=1;rounded=0;exitX=0.75;exitY=0;exitDx=0;exitDy=0;entryX=0;entryY=0.75;entryDx=0;entryDy=0;" edge="1" parent="1" source="LWIg9Wg_jVXJ1rkE-vnx-9" target="LWIg9Wg_jVXJ1rkE-vnx-11">
          <mxGeometry width="50" height="50" relative="1" as="geometry">
            <mxPoint x="400" y="220" as="sourcePoint" />
            <mxPoint x="450" y="170" as="targetPoint" />
          </mxGeometry>
        </mxCell>
        <mxCell id="LWIg9Wg_jVXJ1rkE-vnx-16" value="" style="endArrow=classic;html=1;rounded=0;exitX=0.003;exitY=0.867;exitDx=0;exitDy=0;exitPerimeter=0;entryX=1;entryY=0.25;entryDx=0;entryDy=0;" edge="1" parent="1" source="LWIg9Wg_jVXJ1rkE-vnx-7" target="LWIg9Wg_jVXJ1rkE-vnx-8">
          <mxGeometry width="50" height="50" relative="1" as="geometry">
            <mxPoint x="510" y="180" as="sourcePoint" />
            <mxPoint x="560" y="130" as="targetPoint" />
          </mxGeometry>
        </mxCell>
        <mxCell id="LWIg9Wg_jVXJ1rkE-vnx-17" value="" style="endArrow=classic;html=1;rounded=0;exitX=0.987;exitY=0.387;exitDx=0;exitDy=0;exitPerimeter=0;entryX=0;entryY=0.5;entryDx=0;entryDy=0;" edge="1" parent="1" source="LWIg9Wg_jVXJ1rkE-vnx-10" target="LWIg9Wg_jVXJ1rkE-vnx-7">
          <mxGeometry width="50" height="50" relative="1" as="geometry">
            <mxPoint x="400" y="220" as="sourcePoint" />
            <mxPoint x="450" y="170" as="targetPoint" />
          </mxGeometry>
        </mxCell>
        <mxCell id="LWIg9Wg_jVXJ1rkE-vnx-18" value="" style="endArrow=classic;html=1;rounded=0;exitX=1;exitY=0.75;exitDx=0;exitDy=0;entryX=0.897;entryY=-0.02;entryDx=0;entryDy=0;entryPerimeter=0;" edge="1" parent="1" source="LWIg9Wg_jVXJ1rkE-vnx-6" target="LWIg9Wg_jVXJ1rkE-vnx-8">
          <mxGeometry width="50" height="50" relative="1" as="geometry">
            <mxPoint x="400" y="220" as="sourcePoint" />
            <mxPoint x="450" y="170" as="targetPoint" />
          </mxGeometry>
        </mxCell>
      </root>
    </mxGraphModel>
  </diagram>
  <diagram id="sk2JgPKzfBdFYa3UFOvs" name="BartenderBar">
    <mxGraphModel dx="1552" dy="882" grid="1" gridSize="10" guides="1" tooltips="1" connect="1" arrows="1" fold="1" page="1" pageScale="1" pageWidth="827" pageHeight="1169" math="0" shadow="0">
      <root>
        <mxCell id="0" />
        <mxCell id="1" parent="0" />
        <mxCell id="1GqfGEVuXYbbXNQQKDPi-1" value="&lt;font style=&quot;font-size: 22px;&quot;&gt;John&lt;/font&gt;" style="rounded=1;whiteSpace=wrap;html=1;" vertex="1" parent="1">
          <mxGeometry x="100" y="110" width="120" height="60" as="geometry" />
        </mxCell>
        <mxCell id="1GqfGEVuXYbbXNQQKDPi-2" value="&lt;font style=&quot;font-size: 22px;&quot;&gt;Cheers&lt;/font&gt;" style="rounded=1;whiteSpace=wrap;html=1;" vertex="1" parent="1">
          <mxGeometry x="610" y="110" width="120" height="60" as="geometry" />
        </mxCell>
        <mxCell id="1GqfGEVuXYbbXNQQKDPi-3" value="&lt;font style=&quot;font-size: 22px;&quot;&gt;Michael&lt;/font&gt;" style="rounded=1;whiteSpace=wrap;html=1;" vertex="1" parent="1">
          <mxGeometry x="100" y="370" width="120" height="60" as="geometry" />
        </mxCell>
        <mxCell id="1GqfGEVuXYbbXNQQKDPi-4" value="&lt;font style=&quot;font-size: 22px;&quot;&gt;Brewery House&lt;/font&gt;" style="rounded=1;whiteSpace=wrap;html=1;" vertex="1" parent="1">
          <mxGeometry x="630" y="240" width="120" height="60" as="geometry" />
        </mxCell>
        <mxCell id="1GqfGEVuXYbbXNQQKDPi-5" value="&lt;font style=&quot;font-size: 22px;&quot;&gt;Hop &amp;amp; Barrel&lt;/font&gt;" style="rounded=1;whiteSpace=wrap;html=1;" vertex="1" parent="1">
          <mxGeometry x="610" y="370" width="120" height="60" as="geometry" />
        </mxCell>
        <mxCell id="Q262OZAcgpdnKdSFlUul-1" value="&lt;font style=&quot;font-size: 22px;&quot;&gt;Jane&lt;/font&gt;" style="rounded=1;whiteSpace=wrap;html=1;" vertex="1" parent="1">
          <mxGeometry x="80" y="240" width="120" height="60" as="geometry" />
        </mxCell>
        <mxCell id="Q262OZAcgpdnKdSFlUul-3" value="&lt;font style=&quot;font-size: 22px;&quot;&gt;Emily&lt;/font&gt;" style="rounded=1;whiteSpace=wrap;html=1;" vertex="1" parent="1">
          <mxGeometry x="80" y="500" width="120" height="60" as="geometry" />
        </mxCell>
        <mxCell id="Q262OZAcgpdnKdSFlUul-4" value="&lt;font style=&quot;font-size: 22px;&quot;&gt;Sarah&lt;/font&gt;" style="rounded=1;whiteSpace=wrap;html=1;" vertex="1" parent="1">
          <mxGeometry x="80" y="760" width="120" height="60" as="geometry" />
        </mxCell>
        <mxCell id="Q262OZAcgpdnKdSFlUul-5" value="&lt;font style=&quot;font-size: 22px;&quot;&gt;David&lt;/font&gt;" style="rounded=1;whiteSpace=wrap;html=1;" vertex="1" parent="1">
          <mxGeometry x="100" y="630" width="120" height="60" as="geometry" />
        </mxCell>
        <mxCell id="Q262OZAcgpdnKdSFlUul-6" value="&lt;font style=&quot;font-size: 22px;&quot;&gt;The Pub&lt;/font&gt;" style="rounded=1;whiteSpace=wrap;html=1;" vertex="1" parent="1">
          <mxGeometry x="630" y="500" width="120" height="60" as="geometry" />
        </mxCell>
        <mxCell id="Q262OZAcgpdnKdSFlUul-7" value="&lt;font style=&quot;font-size: 22px;&quot;&gt;Malty Moose&lt;/font&gt;" style="rounded=1;whiteSpace=wrap;html=1;" vertex="1" parent="1">
          <mxGeometry x="610" y="630" width="120" height="60" as="geometry" />
        </mxCell>
        <mxCell id="Q262OZAcgpdnKdSFlUul-8" value="&lt;font style=&quot;font-size: 22px;&quot;&gt;Sip &amp;amp; Savor&lt;/font&gt;" style="rounded=1;whiteSpace=wrap;html=1;" vertex="1" parent="1">
          <mxGeometry x="630" y="760" width="120" height="60" as="geometry" />
        </mxCell>
        <mxCell id="Q262OZAcgpdnKdSFlUul-9" value="" style="endArrow=classic;html=1;rounded=0;exitX=1;exitY=0.5;exitDx=0;exitDy=0;entryX=0;entryY=0.5;entryDx=0;entryDy=0;" edge="1" parent="1" source="1GqfGEVuXYbbXNQQKDPi-3" target="1GqfGEVuXYbbXNQQKDPi-5">
          <mxGeometry width="50" height="50" relative="1" as="geometry">
            <mxPoint x="500" y="440" as="sourcePoint" />
            <mxPoint x="550" y="390" as="targetPoint" />
          </mxGeometry>
        </mxCell>
        <mxCell id="Q262OZAcgpdnKdSFlUul-10" value="" style="endArrow=classic;html=1;rounded=0;exitX=1;exitY=0.5;exitDx=0;exitDy=0;entryX=0;entryY=0.5;entryDx=0;entryDy=0;" edge="1" parent="1" source="1GqfGEVuXYbbXNQQKDPi-1" target="1GqfGEVuXYbbXNQQKDPi-2">
          <mxGeometry width="50" height="50" relative="1" as="geometry">
            <mxPoint x="230" y="410" as="sourcePoint" />
            <mxPoint x="620" y="410" as="targetPoint" />
          </mxGeometry>
        </mxCell>
        <mxCell id="Q262OZAcgpdnKdSFlUul-11" value="" style="endArrow=classic;html=1;rounded=0;exitX=1;exitY=0.5;exitDx=0;exitDy=0;entryX=0;entryY=0.5;entryDx=0;entryDy=0;" edge="1" parent="1" source="Q262OZAcgpdnKdSFlUul-1" target="1GqfGEVuXYbbXNQQKDPi-4">
          <mxGeometry width="50" height="50" relative="1" as="geometry">
            <mxPoint x="240" y="420" as="sourcePoint" />
            <mxPoint x="630" y="420" as="targetPoint" />
          </mxGeometry>
        </mxCell>
        <mxCell id="Q262OZAcgpdnKdSFlUul-12" value="" style="endArrow=classic;html=1;rounded=0;exitX=1;exitY=0.5;exitDx=0;exitDy=0;entryX=0;entryY=0.5;entryDx=0;entryDy=0;" edge="1" parent="1" source="Q262OZAcgpdnKdSFlUul-4" target="Q262OZAcgpdnKdSFlUul-8">
          <mxGeometry width="50" height="50" relative="1" as="geometry">
            <mxPoint x="250" y="430" as="sourcePoint" />
            <mxPoint x="640" y="430" as="targetPoint" />
          </mxGeometry>
        </mxCell>
        <mxCell id="Q262OZAcgpdnKdSFlUul-13" value="" style="endArrow=classic;html=1;rounded=0;entryX=0;entryY=0.5;entryDx=0;entryDy=0;exitX=1;exitY=0.5;exitDx=0;exitDy=0;" edge="1" parent="1" source="Q262OZAcgpdnKdSFlUul-5" target="Q262OZAcgpdnKdSFlUul-7">
          <mxGeometry width="50" height="50" relative="1" as="geometry">
            <mxPoint x="290" y="660" as="sourcePoint" />
            <mxPoint x="580" y="659" as="targetPoint" />
          </mxGeometry>
        </mxCell>
        <mxCell id="Q262OZAcgpdnKdSFlUul-14" value="" style="endArrow=classic;html=1;rounded=0;exitX=1;exitY=0.5;exitDx=0;exitDy=0;entryX=0;entryY=0.5;entryDx=0;entryDy=0;" edge="1" parent="1" source="Q262OZAcgpdnKdSFlUul-3" target="Q262OZAcgpdnKdSFlUul-6">
          <mxGeometry width="50" height="50" relative="1" as="geometry">
            <mxPoint x="270" y="450" as="sourcePoint" />
            <mxPoint x="660" y="450" as="targetPoint" />
          </mxGeometry>
        </mxCell>
      </root>
    </mxGraphModel>
  </diagram>
  <diagram id="jfEQu5qc5VJNQlA7vQ3v" name="BartenderShift">
    <mxGraphModel dx="1441" dy="819" grid="1" gridSize="10" guides="1" tooltips="1" connect="1" arrows="1" fold="1" page="1" pageScale="1" pageWidth="827" pageHeight="1169" math="0" shadow="0">
      <root>
        <mxCell id="0" />
        <mxCell id="1" parent="0" />
        <mxCell id="Bs20jj3e_P7MJ2vPdoGu-1" value="&lt;font style=&quot;font-size: 22px;&quot;&gt;Smith&lt;/font&gt;" style="rounded=1;whiteSpace=wrap;html=1;" vertex="1" parent="1">
          <mxGeometry x="10" y="730" width="120" height="60" as="geometry" />
        </mxCell>
        <mxCell id="Bs20jj3e_P7MJ2vPdoGu-2" value="&lt;font style=&quot;font-size: 22px;&quot;&gt;Cheers&lt;/font&gt;" style="rounded=1;whiteSpace=wrap;html=1;" vertex="1" parent="1">
          <mxGeometry x="220" y="680" width="120" height="60" as="geometry" />
        </mxCell>
        <mxCell id="Bs20jj3e_P7MJ2vPdoGu-3" value="&lt;font style=&quot;font-size: 22px;&quot;&gt;Johnson&lt;/font&gt;" style="rounded=1;whiteSpace=wrap;html=1;" vertex="1" parent="1">
          <mxGeometry x="414" y="330" width="120" height="60" as="geometry" />
        </mxCell>
        <mxCell id="Bs20jj3e_P7MJ2vPdoGu-4" value="&lt;font style=&quot;font-size: 22px;&quot;&gt;Brewery House&lt;/font&gt;" style="rounded=1;whiteSpace=wrap;html=1;" vertex="1" parent="1">
          <mxGeometry x="450" y="190" width="120" height="60" as="geometry" />
        </mxCell>
        <mxCell id="Bs20jj3e_P7MJ2vPdoGu-5" value="&lt;font style=&quot;font-size: 22px;&quot;&gt;Hop &amp;amp; Barrel&lt;/font&gt;" style="rounded=1;whiteSpace=wrap;html=1;" vertex="1" parent="1">
          <mxGeometry x="660" y="410" width="120" height="60" as="geometry" />
        </mxCell>
        <mxCell id="Bs20jj3e_P7MJ2vPdoGu-6" value="&lt;font style=&quot;font-size: 22px;&quot;&gt;Doe&lt;/font&gt;" style="rounded=1;whiteSpace=wrap;html=1;" vertex="1" parent="1">
          <mxGeometry x="90" y="330" width="120" height="60" as="geometry" />
        </mxCell>
        <mxCell id="Bs20jj3e_P7MJ2vPdoGu-7" value="&lt;font style=&quot;font-size: 22px;&quot;&gt;Davis&lt;/font&gt;" style="rounded=1;whiteSpace=wrap;html=1;" vertex="1" parent="1">
          <mxGeometry x="80" y="500" width="120" height="60" as="geometry" />
        </mxCell>
        <mxCell id="Bs20jj3e_P7MJ2vPdoGu-8" value="&lt;font style=&quot;font-size: 22px;&quot;&gt;Thompson&lt;/font&gt;" style="rounded=1;whiteSpace=wrap;html=1;" vertex="1" parent="1">
          <mxGeometry x="110" y="880" width="120" height="60" as="geometry" />
        </mxCell>
        <mxCell id="Bs20jj3e_P7MJ2vPdoGu-9" value="&lt;font style=&quot;font-size: 22px;&quot;&gt;&amp;nbsp;Wilson&lt;/font&gt;" style="rounded=1;whiteSpace=wrap;html=1;" vertex="1" parent="1">
          <mxGeometry x="370" y="620" width="120" height="60" as="geometry" />
        </mxCell>
        <mxCell id="Bs20jj3e_P7MJ2vPdoGu-10" value="&lt;font style=&quot;font-size: 22px;&quot;&gt;The Pub&lt;/font&gt;" style="rounded=1;whiteSpace=wrap;html=1;" vertex="1" parent="1">
          <mxGeometry x="310" y="470" width="120" height="60" as="geometry" />
        </mxCell>
        <mxCell id="Bs20jj3e_P7MJ2vPdoGu-11" value="&lt;font style=&quot;font-size: 22px;&quot;&gt;Malty Moose&lt;/font&gt;" style="rounded=1;whiteSpace=wrap;html=1;" vertex="1" parent="1">
          <mxGeometry x="610" y="680" width="120" height="60" as="geometry" />
        </mxCell>
        <mxCell id="Bs20jj3e_P7MJ2vPdoGu-12" value="&lt;font style=&quot;font-size: 22px;&quot;&gt;Sip &amp;amp; Savor&lt;/font&gt;" style="rounded=1;whiteSpace=wrap;html=1;" vertex="1" parent="1">
          <mxGeometry x="414" y="840" width="120" height="60" as="geometry" />
        </mxCell>
        <mxCell id="Bs20jj3e_P7MJ2vPdoGu-13" value="" style="endArrow=classic;html=1;rounded=0;exitX=1;exitY=0.5;exitDx=0;exitDy=0;entryX=0;entryY=0.5;entryDx=0;entryDy=0;" edge="1" parent="1" source="Bs20jj3e_P7MJ2vPdoGu-3" target="Bs20jj3e_P7MJ2vPdoGu-5">
          <mxGeometry width="50" height="50" relative="1" as="geometry">
            <mxPoint x="500" y="440" as="sourcePoint" />
            <mxPoint x="550" y="390" as="targetPoint" />
          </mxGeometry>
        </mxCell>
        <mxCell id="Bs20jj3e_P7MJ2vPdoGu-14" value="" style="endArrow=classic;html=1;rounded=0;exitX=1;exitY=0.5;exitDx=0;exitDy=0;entryX=0;entryY=0.5;entryDx=0;entryDy=0;" edge="1" parent="1" source="Bs20jj3e_P7MJ2vPdoGu-1" target="Bs20jj3e_P7MJ2vPdoGu-2">
          <mxGeometry width="50" height="50" relative="1" as="geometry">
            <mxPoint x="230" y="410" as="sourcePoint" />
            <mxPoint x="620" y="410" as="targetPoint" />
          </mxGeometry>
        </mxCell>
        <mxCell id="Bs20jj3e_P7MJ2vPdoGu-15" value="" style="endArrow=classic;html=1;rounded=0;exitX=1;exitY=0.5;exitDx=0;exitDy=0;entryX=0;entryY=0.5;entryDx=0;entryDy=0;" edge="1" parent="1" source="Bs20jj3e_P7MJ2vPdoGu-6" target="Bs20jj3e_P7MJ2vPdoGu-4">
          <mxGeometry width="50" height="50" relative="1" as="geometry">
            <mxPoint x="240" y="420" as="sourcePoint" />
            <mxPoint x="630" y="420" as="targetPoint" />
          </mxGeometry>
        </mxCell>
        <mxCell id="Bs20jj3e_P7MJ2vPdoGu-16" value="" style="endArrow=classic;html=1;rounded=0;exitX=1;exitY=0.5;exitDx=0;exitDy=0;entryX=0;entryY=0.5;entryDx=0;entryDy=0;" edge="1" parent="1" source="Bs20jj3e_P7MJ2vPdoGu-8" target="Bs20jj3e_P7MJ2vPdoGu-12">
          <mxGeometry width="50" height="50" relative="1" as="geometry">
            <mxPoint x="250" y="430" as="sourcePoint" />
            <mxPoint x="640" y="430" as="targetPoint" />
          </mxGeometry>
        </mxCell>
        <mxCell id="Bs20jj3e_P7MJ2vPdoGu-17" value="" style="endArrow=classic;html=1;rounded=0;entryX=0;entryY=0.5;entryDx=0;entryDy=0;exitX=1;exitY=0.5;exitDx=0;exitDy=0;" edge="1" parent="1" source="Bs20jj3e_P7MJ2vPdoGu-9" target="Bs20jj3e_P7MJ2vPdoGu-11">
          <mxGeometry width="50" height="50" relative="1" as="geometry">
            <mxPoint x="290" y="660" as="sourcePoint" />
            <mxPoint x="580" y="659" as="targetPoint" />
          </mxGeometry>
        </mxCell>
        <mxCell id="Bs20jj3e_P7MJ2vPdoGu-18" value="" style="endArrow=classic;html=1;rounded=0;exitX=1;exitY=0.5;exitDx=0;exitDy=0;entryX=0;entryY=0.5;entryDx=0;entryDy=0;" edge="1" parent="1" source="Bs20jj3e_P7MJ2vPdoGu-7" target="Bs20jj3e_P7MJ2vPdoGu-10">
          <mxGeometry width="50" height="50" relative="1" as="geometry">
            <mxPoint x="270" y="450" as="sourcePoint" />
            <mxPoint x="660" y="450" as="targetPoint" />
          </mxGeometry>
        </mxCell>
      </root>
    </mxGraphModel>
  </diagram>
  <diagram id="wPWBIwZMJixeJ8-PgKKj" name="BarInventory">
    <mxGraphModel dx="1441" dy="819" grid="1" gridSize="10" guides="1" tooltips="1" connect="1" arrows="1" fold="1" page="1" pageScale="1" pageWidth="827" pageHeight="1169" math="0" shadow="0">
      <root>
        <mxCell id="0" />
        <mxCell id="1" parent="0" />
        <mxCell id="czDQA514bYbStiag9ZGj-1" value="&lt;font style=&quot;font-size: 22px;&quot;&gt;Пиво (1 сорт)&lt;/font&gt;" style="rounded=1;whiteSpace=wrap;html=1;" vertex="1" parent="1">
          <mxGeometry x="40" y="850" width="150" height="70" as="geometry" />
        </mxCell>
        <mxCell id="czDQA514bYbStiag9ZGj-2" value="&lt;font style=&quot;font-size: 22px;&quot;&gt;Cheers&lt;/font&gt;" style="rounded=1;whiteSpace=wrap;html=1;" vertex="1" parent="1">
          <mxGeometry x="330" y="855" width="120" height="60" as="geometry" />
        </mxCell>
        <mxCell id="czDQA514bYbStiag9ZGj-3" value="&lt;font style=&quot;font-size: 22px;&quot;&gt;Безалкогольные напитки&lt;/font&gt;" style="rounded=1;whiteSpace=wrap;html=1;" vertex="1" parent="1">
          <mxGeometry x="370" y="420" width="180" height="80" as="geometry" />
        </mxCell>
        <mxCell id="czDQA514bYbStiag9ZGj-4" value="&lt;font style=&quot;font-size: 22px;&quot;&gt;Brewery House&lt;/font&gt;" style="rounded=1;whiteSpace=wrap;html=1;" vertex="1" parent="1">
          <mxGeometry x="400" y="300" width="120" height="60" as="geometry" />
        </mxCell>
        <mxCell id="czDQA514bYbStiag9ZGj-5" value="&lt;font style=&quot;font-size: 22px;&quot;&gt;Hop &amp;amp; Barrel&lt;/font&gt;" style="rounded=1;whiteSpace=wrap;html=1;" vertex="1" parent="1">
          <mxGeometry x="670" y="430" width="120" height="60" as="geometry" />
        </mxCell>
        <mxCell id="czDQA514bYbStiag9ZGj-6" value="&lt;font style=&quot;font-size: 22px;&quot;&gt;Спиртные напитки&lt;/font&gt;" style="rounded=1;whiteSpace=wrap;html=1;" vertex="1" parent="1">
          <mxGeometry x="90" y="300" width="120" height="60" as="geometry" />
        </mxCell>
        <mxCell id="czDQA514bYbStiag9ZGj-7" value="&lt;font style=&quot;font-size: 22px;&quot;&gt;Вино&lt;/font&gt;" style="rounded=1;whiteSpace=wrap;html=1;" vertex="1" parent="1">
          <mxGeometry x="40" y="570" width="120" height="60" as="geometry" />
        </mxCell>
        <mxCell id="czDQA514bYbStiag9ZGj-8" value="&lt;span style=&quot;font-size: 22px;&quot;&gt;Закуски&lt;/span&gt;" style="rounded=1;whiteSpace=wrap;html=1;" vertex="1" parent="1">
          <mxGeometry x="370" y="980" width="120" height="60" as="geometry" />
        </mxCell>
        <mxCell id="czDQA514bYbStiag9ZGj-9" value="&lt;font style=&quot;font-size: 22px;&quot;&gt;Пиво (2 сорт)&lt;/font&gt;" style="rounded=1;whiteSpace=wrap;html=1;" vertex="1" parent="1">
          <mxGeometry x="400" y="725" width="150" height="70" as="geometry" />
        </mxCell>
        <mxCell id="czDQA514bYbStiag9ZGj-10" value="&lt;font style=&quot;font-size: 22px;&quot;&gt;The Pub&lt;/font&gt;" style="rounded=1;whiteSpace=wrap;html=1;" vertex="1" parent="1">
          <mxGeometry x="330" y="570" width="120" height="60" as="geometry" />
        </mxCell>
        <mxCell id="czDQA514bYbStiag9ZGj-11" value="&lt;font style=&quot;font-size: 22px;&quot;&gt;Malty Moose&lt;/font&gt;" style="rounded=1;whiteSpace=wrap;html=1;" vertex="1" parent="1">
          <mxGeometry x="660" y="730" width="120" height="60" as="geometry" />
        </mxCell>
        <mxCell id="czDQA514bYbStiag9ZGj-12" value="&lt;font style=&quot;font-size: 22px;&quot;&gt;Sip &amp;amp; Savor&lt;/font&gt;" style="rounded=1;whiteSpace=wrap;html=1;" vertex="1" parent="1">
          <mxGeometry x="620" y="980" width="120" height="60" as="geometry" />
        </mxCell>
        <mxCell id="czDQA514bYbStiag9ZGj-13" value="" style="endArrow=classic;html=1;rounded=0;exitX=1;exitY=0.5;exitDx=0;exitDy=0;entryX=0;entryY=0.5;entryDx=0;entryDy=0;" edge="1" parent="1" source="czDQA514bYbStiag9ZGj-3" target="czDQA514bYbStiag9ZGj-5">
          <mxGeometry width="50" height="50" relative="1" as="geometry">
            <mxPoint x="500" y="440" as="sourcePoint" />
            <mxPoint x="550" y="390" as="targetPoint" />
          </mxGeometry>
        </mxCell>
        <mxCell id="czDQA514bYbStiag9ZGj-14" value="" style="endArrow=classic;html=1;rounded=0;exitX=1;exitY=0.5;exitDx=0;exitDy=0;entryX=0;entryY=0.5;entryDx=0;entryDy=0;" edge="1" parent="1" source="czDQA514bYbStiag9ZGj-1" target="czDQA514bYbStiag9ZGj-2">
          <mxGeometry width="50" height="50" relative="1" as="geometry">
            <mxPoint x="230" y="410" as="sourcePoint" />
            <mxPoint x="620" y="410" as="targetPoint" />
          </mxGeometry>
        </mxCell>
        <mxCell id="czDQA514bYbStiag9ZGj-15" value="" style="endArrow=classic;html=1;rounded=0;exitX=1;exitY=0.5;exitDx=0;exitDy=0;entryX=0;entryY=0.5;entryDx=0;entryDy=0;" edge="1" parent="1" source="czDQA514bYbStiag9ZGj-6" target="czDQA514bYbStiag9ZGj-4">
          <mxGeometry width="50" height="50" relative="1" as="geometry">
            <mxPoint x="240" y="420" as="sourcePoint" />
            <mxPoint x="630" y="420" as="targetPoint" />
          </mxGeometry>
        </mxCell>
        <mxCell id="czDQA514bYbStiag9ZGj-16" value="" style="endArrow=classic;html=1;rounded=0;exitX=1;exitY=0.5;exitDx=0;exitDy=0;entryX=0;entryY=0.5;entryDx=0;entryDy=0;" edge="1" parent="1" source="czDQA514bYbStiag9ZGj-8" target="czDQA514bYbStiag9ZGj-12">
          <mxGeometry width="50" height="50" relative="1" as="geometry">
            <mxPoint x="250" y="430" as="sourcePoint" />
            <mxPoint x="640" y="430" as="targetPoint" />
          </mxGeometry>
        </mxCell>
        <mxCell id="czDQA514bYbStiag9ZGj-17" value="" style="endArrow=classic;html=1;rounded=0;entryX=0;entryY=0.5;entryDx=0;entryDy=0;exitX=1;exitY=0.5;exitDx=0;exitDy=0;" edge="1" parent="1" source="czDQA514bYbStiag9ZGj-9" target="czDQA514bYbStiag9ZGj-11">
          <mxGeometry width="50" height="50" relative="1" as="geometry">
            <mxPoint x="290" y="660" as="sourcePoint" />
            <mxPoint x="580" y="659" as="targetPoint" />
          </mxGeometry>
        </mxCell>
        <mxCell id="czDQA514bYbStiag9ZGj-18" value="" style="endArrow=classic;html=1;rounded=0;exitX=1;exitY=0.5;exitDx=0;exitDy=0;entryX=0;entryY=0.5;entryDx=0;entryDy=0;" edge="1" parent="1" source="czDQA514bYbStiag9ZGj-7" target="czDQA514bYbStiag9ZGj-10">
          <mxGeometry width="50" height="50" relative="1" as="geometry">
            <mxPoint x="270" y="450" as="sourcePoint" />
            <mxPoint x="660" y="450" as="targetPoint" />
          </mxGeometry>
        </mxCell>
      </root>
    </mxGraphModel>
  </diagram>
</mxfile>
